<?xml version="1.0" encoding="utf-8"?>
<!-- Generator: Adobe Illustrator 16.0.0, SVG Export Plug-In . SVG Version: 6.00 Build 0)  -->
<!DOCTYPE svg PUBLIC "-//W3C//DTD SVG 1.1//EN" "http://www.w3.org/Graphics/SVG/1.1/DTD/svg11.dtd" [
	<!ENTITY ns_extend "http://ns.adobe.com/Extensibility/1.0/">
	<!ENTITY ns_ai "http://ns.adobe.com/AdobeIllustrator/10.0/">
	<!ENTITY ns_graphs "http://ns.adobe.com/Graphs/1.0/">
	<!ENTITY ns_vars "http://ns.adobe.com/Variables/1.0/">
	<!ENTITY ns_imrep "http://ns.adobe.com/ImageReplacement/1.0/">
	<!ENTITY ns_sfw "http://ns.adobe.com/SaveForWeb/1.0/">
	<!ENTITY ns_custom "http://ns.adobe.com/GenericCustomNamespace/1.0/">
	<!ENTITY ns_adobe_xpath "http://ns.adobe.com/XPath/1.0/">
]>
<svg version="1.1" id="Layer_1" xmlns:x="&ns_extend;" xmlns:i="&ns_ai;" xmlns:graph="&ns_graphs;"
	 xmlns="http://www.w3.org/2000/svg" xmlns:xlink="http://www.w3.org/1999/xlink" x="0px" y="0px" width="197px" height="58px"
	 viewBox="0 0 197 58" enable-background="new 0 0 197 58" xml:space="preserve">
<metadata>
	<sfw  xmlns="&ns_sfw;">
		<slices></slices>
		<sliceSourceBounds  height="58" width="197" bottomLeftOrigin="true" y="-104" x="52"></sliceSourceBounds>
	</sfw>
</metadata>
<g id="PkOx6W.tif">
	<image overflow="visible" width="197" height="58" id="Layer_0_1_" xlink:href="C2696FACC038AC99.png" >
	</image>
</g>
<g>
	<g>
		<g>
			<path fill="#FFFFFF" d="M34.563,45.524c-5.581-1.1-10.975-0.638-14.726-0.364c-3.746,0.284-10.239,3.285-9.048,1.829
				c1.19-1.465,5.207-6.101,7.309-9.508c2.38-3.838,4.029-8.584,5.587-12.524c1.547-3.931,3.892-7.912,6.542-10.294
				c3.509-3.151,13.655-2.686,13.655-2.686L48.546,1.1c-13.343-1.004-21.03,5.852-23.405,9.232c-1.349,1.922-1.736,3.566-2.47,5.669
				c-0.725,2.099-3.648,9.598-6.21,16.45C13.447,39.86,8.687,44.063,6.404,45.986c-2.297,1.928-4.942,3.012-4.942,3.012l3.027,8.226
				c8.77-6.848,17.086-8.861,21.655-9.039c5.67-0.828,12.771,0.459,14.629,0.909c2.658,0.643,9.604,3.295,10.148,3.562
				c0.548,0.279,0.82-0.106,0.646-0.342C48.816,49.573,39.046,46.409,34.563,45.524"/>
			<path fill="#FFFFFF" d="M89.792,33.998c-0.58,0.527-2.174,2.64-4.287,3.566c-2.053,0.915-2.702-0.101-2.345-1.363
				c1.034-2.424,4.418-5.904,3.33-5.54c-1.077,0.37-4.808,0.899-4.808,0.899s0.356-2.316,0.924-3.059
				c-4.96-0.38-10.377,5.708-11.205,6.567c-0.828,0.861-3.346,3.183-5.628,3.126c-2.061-0.051-2.042-1.656-1.892-3.389
				c0.647-2.054,3.558-4.551,3.866-4.975c0.297-0.434-1.98-1.383-3.151-1.929c-0.761,1.406-2.729,3.46-4.259,4.033
				c-1.039,0.384-0.478-0.342-0.355-1.823c0.122-1.47,0.446-1.433,0.235-1.978c-0.917-0.182-3.436-0.023-3.792,0.217
				c-0.714,2.36-1.995,2.465-2.708,2.953c-1.377,1.021-1.363,0.195-1.232-0.958c0.121-1.026,0.368-1.104-0.014-1.316
				c-2.024-1.202-3.48-1.091-3.545-0.631c-1.461,2.252-2.827,3.374-4.208,4.116c-1.088,0.583-2.526,1.021-4.09,1.001
				c-1.548-0.03-1.556-0.215-1.677-0.75c-0.111-0.55,0.051-1.1-0.722-2.158c-0.489-0.667-0.592-0.854-1.064-1.021
				c-0.671,0.308-2.234,1.156-2.676,1.456c-0.664,0.434-0.375,0.879-0.03,1.463c0.365,0.615,0.672,1.621,0.03,2.832
				c-0.602,1.155-1.643,2.268-3,2.331c-1.38,0.05-1.776-1.812-0.987-3.663c1.562-3.087,3.438-3.516,4.332-4.111
				c1.715-0.534,2.26-2.159,0.436-1.906c-1.947,0.261-3.667,0.984-5.653,2.522c-2.217,1.733-3.046,3.706-2.756,5.981
				c0.431,3.863,3.945,5.039,7.024,2.941c3.425-3.078,2.14-4.615,3.406-4.956c3.577,2.231,7.081,0.069,8.396-0.473
				c1.322-0.556,1.281-0.062,0.659,1.186c-0.61,1.246-4.326,4.397-3.956,4.441c0.369,0.043,2.837,0.643,4.257,0.67
				c2.868-2.411,4.633-5.689,5.217-6.265c0.755-0.749,1.675-1.406,2.798-1.158c1.478,0.559-2.894,5.323-3.624,6.56
				c0.814,0.21,3.461,0.477,5.06,0.538c0.834-0.522,1.155-2.886,1.928-4.127c0.73-1.336,2.241-3.005,2.12-0.605
				c-0.312,3.195,0.634,6.188,5.649,5.199c2.576-0.503,4.494-2.589,4.831-2.087c1.365,3.01,3.897,2.245,5.201,1.918
				c1.563-0.397,2.266-1.747,3.454-1.662c0.044,0.923,0.485,2.539,3.069,1.976c2.59-0.574,4.84-2.31,7.538-5.185
				C91.073,34.078,90.368,33.474,89.792,33.998 M81.265,32.487c-0.167,0.386-0.83,2.392-1.692,3.459
				c-0.876,1.084-1.842,2.786-4.001,2.13c-1.332-0.668-0.323-2.728,1.398-4.393C78.002,32.271,81.671,31.589,81.265,32.487"/>
			<path fill="#FFFFFF" d="M123.357,45.95c-5.575-1.097-10.973-0.646-14.721-0.361c-3.744,0.271-10.229,3.285-9.052,1.831
				c1.189-1.473,5.199-6.113,7.321-9.511c2.365-3.838,4-8.595,5.575-12.528c1.538-3.928,3.89-7.916,6.541-10.297
				c3.509-3.141,13.652-2.68,13.652-2.68l4.668-10.878c-13.351-1.007-21.022,5.847-23.407,9.229
				c-1.348,1.923-1.74,3.564-2.459,5.667c-0.743,2.102-3.66,9.6-6.213,16.461c-3.021,7.408-7.781,11.611-10.07,13.529
				c-2.278,1.92-4.936,3.02-4.936,3.02l3.021,8.226c8.782-6.86,17.098-8.874,21.668-9.054c5.659-0.821,12.759,0.466,14.634,0.916
				c2.647,0.642,9.588,3.286,10.134,3.564c0.55,0.266,0.823-0.113,0.643-0.346C137.614,50.007,127.846,46.829,123.357,45.95"/>
			<path fill="#FFFFFF" d="M195.407,32.569c-0.579,0.458-2.93,4.383-6.209,5.249c-1.224,0.359-2.686,0.519-2.252-1.173
				c0.857-1.839,3.539-4.9,3.483-6.188c-1.127,0.667-5.068,1.318-5.068,1.318s0.283-1.913,1.56-3.708
				c-1.981-0.885-6.932,2.264-10.07,5.468c-1.404,1.417-4.616,2.904-4.616,2.904s-2.488,1.518-4.109,0.928
				c-1.592-0.599,1.523-5.01,2.396-6.94c0.901-1.944,7.4-12.633,8.852-14.8c-0.56,0.083-3.856-0.188-4.204,0.199
				c-0.351,0.38-5.706,10.038-6.327,11.285c-0.603,1.258-1.414,2.635-1.635,2.8c-1.182-1.781-2.344-2.451-4.909-2.017
				c-2.091,0.34-5.714,4.178-6.512,5.2c-0.811,1.019-4.062,3.175-4.062,3.175s-2.793,1.55-3.663,1.286
				c-0.866-0.271,1.778-3.631,2.517-4.704c0.728-1.062,1.739-2.839-0.009-4.083c-0.888-0.638-4.544,0.881-5.414,1.911
				c-0.855,1.021-2.98,1.292-3.054,1.001c-0.07-0.304,0.809-1.383,0.716-1.742c-0.678-0.696-2.736-1.522-3.395-1.79
				c-0.387,0.803-3.614,4.693-5.306,6.173c-0.634,0.761-2.435,2.75-6.194,3.413c-3.751,0.672-2.646-1.951-2.374-2.454
				c0.284-0.5,4.122-5.168,3.808-5.329c-0.313-0.175-2.73-1.769-3.224-2.138c-2.638,6.083-6.17,8.543-7.368,9.643
				c-0.982,1.008-3.894,2.017-4.825,2.538c-0.596,0.337-0.146,0.812,0.905,0.362c2.812-0.504,5.679-2.933,5.701-2.447
				c0.024,0.489,0.624,2.69,2.57,2.961c2.366,0.064,9.054-2.092,11.552-5.238c0.725-0.33,2.142-2.232,1.336-0.056
				c-0.817,2.177-3.571,4.844-3.571,4.844l4.941,0.03c0.472-0.204,2.687-4.339,3.948-5.802c1.28-1.47,2.942-2.224,4.556-1.872
				c1.602,0.345-1.056,2.242-1.987,4.243c-0.957,1.994-0.614,3.629,2.041,3.505c2.692-0.129,7.565-4.152,7.231-3.345
				c0.134,1.391,1.009,2.453,2.492,2.935c2.771,0.534,4.863-0.06,7.876-1.854c-0.237,0.746,0.174,1.731,1.482,2.227
				c4.133,0.431,7.657-2.58,9.147-3.229c-0.521,1.978,0.551,3.2,2.111,3.489c4.59,0.154,6.602-1.669,6.985-1.86
				c0.55,2.231,2.765,2.04,4.81,1.568c4.394-1.95,7.679-7.116,7.679-7.116S196.562,32.272,195.407,32.569 M165.415,33.598
				c-1.03,1.627-1.164,2.095-3.139,3.262c-1.516,0.898-2.884,1.062-3.752,0.184c-1.228-1.249,2.583-5.525,4.827-6.364
				C164.463,30.26,167.364,30.49,165.415,33.598 M184.945,34.471c-0.705,1.385-1.359,2.177-2.958,3.079
				c-1.524,0.874-2.51,1.125-3.383,0.258c-1.234-1.248,2.348-4.687,4.593-5.527C184.311,31.862,186.46,31.561,184.945,34.471"/>
			<path fill="#FFFFFF" d="M129.282,22.779c-2.112,3.79,0.791,4.946,3.139,3.143c1.534-1.135,2.08-3.181,1.213-3.901
				C131.793,19.85,129.495,21.992,129.282,22.779"/>
			<polygon fill="#FFFFFF" points="153.365,44.142 154.957,44.142 154.957,52.233 154.148,52.233 154.148,44.931 152.883,44.931 			
				"/>
			<path fill="#FFFFFF" d="M162.802,52.437l-0.668-0.432l2.195-3.312c-0.293,0.095-0.572,0.137-0.829,0.137
				c-0.646,0-1.192-0.229-1.629-0.69c-0.45-0.464-0.682-1.032-0.682-1.711c0-0.469,0.115-0.892,0.335-1.261
				c0.205-0.375,0.525-0.677,0.914-0.892c0.396-0.233,0.816-0.345,1.282-0.345c0.449,0,0.865,0.113,1.236,0.334
				c0.376,0.216,0.674,0.515,0.892,0.902c0.218,0.387,0.325,0.8,0.325,1.249c0,0.329-0.073,0.675-0.205,1.047
				c-0.132,0.361-0.367,0.795-0.715,1.317L162.802,52.437z M163.68,48.132c0.477,0,0.888-0.17,1.205-0.504
				c0.342-0.329,0.504-0.722,0.504-1.199c0-0.474-0.166-0.874-0.504-1.203c-0.316-0.337-0.728-0.502-1.205-0.502
				c-0.463,0-0.871,0.165-1.202,0.502c-0.326,0.329-0.493,0.729-0.493,1.203c0,0.478,0.167,0.87,0.493,1.199
				C162.809,47.962,163.217,48.132,163.68,48.132"/>
			<path fill="#FFFFFF" d="M171.307,46.675h-0.775c0.016-0.803,0.286-1.456,0.797-1.969c0.523-0.519,1.146-0.774,1.894-0.774
				c0.742,0,1.345,0.248,1.811,0.728c0.461,0.48,0.689,1.048,0.689,1.699c0,0.459-0.104,0.889-0.325,1.291
				c-0.228,0.406-0.646,0.938-1.283,1.63l-2.01,2.167h3.729v0.784h-5.49l3.083-3.338c0.632-0.673,1.041-1.174,1.227-1.498
				c0.19-0.316,0.282-0.669,0.282-1.023c0-0.459-0.163-0.85-0.509-1.175c-0.34-0.33-0.753-0.49-1.235-0.49
				c-0.522,0-0.956,0.17-1.293,0.511C171.548,45.565,171.356,46.049,171.307,46.675"/>
			<path fill="#FFFFFF" d="M184.157,43.932h0.164v5.655h0.985v0.767h-0.985v1.88h-0.8v-1.88h-3.875L184.157,43.932z M183.521,49.587
				v-3.398l-2.399,3.398H183.521z"/>
		</g>
		<g>
			<g>
				<path fill="#FFFFFF" d="M50.686,8.99h0.71V4.519h-0.71V3.894h2.482c0.408,0,0.738,0.015,1.057,0.12c0.602,0.204,1,0.707,1,1.485
					c0,0.83-0.458,1.42-1.187,1.607v0.02c0,0,0.146,0.079,0.244,0.266l0.811,1.41c0.089,0.157,0.196,0.187,0.399,0.187h0.172v0.635
					h-0.486c-0.489,0-0.603-0.088-0.799-0.433l-0.882-1.564c-0.147-0.246-0.253-0.317-0.603-0.317h-0.681v1.68h0.708v0.635h-2.232
					V8.988h-0.001V8.99z M53.36,6.644c0.629,0,1.043-0.407,1.043-1.081c0-0.447-0.178-0.752-0.539-0.902
					c-0.181-0.072-0.427-0.101-0.701-0.101h-0.951v2.084H53.36z"/>
				<path fill="#FFFFFF" d="M56.346,8.99h0.712V4.519h-0.712V3.894h4.145v1.33h-0.707V4.56h-1.913v1.841h2.027v0.667h-2.027v1.89
					h2.049V8.267h0.711v1.356h-4.287V8.99z"/>
				<path fill="#FFFFFF" d="M62.224,7.902v0.423c0,0.421,0.544,0.671,1.146,0.671c0.655,0,1.132-0.308,1.132-0.876
					c0-0.667-0.671-0.884-1.378-1.161c-0.755-0.285-1.523-0.607-1.523-1.621c0-1.08,0.869-1.544,1.834-1.544
					c0.858,0,1.736,0.324,1.736,0.947v0.677h-0.757V5.021c0-0.333-0.512-0.51-0.979-0.51c-0.56,0-1.007,0.258-1.007,0.785
					c0,0.612,0.578,0.811,1.215,1.057c0.848,0.317,1.68,0.643,1.68,1.705c0,1.095-0.896,1.659-1.953,1.659
					c-0.894,0-1.891-0.396-1.891-1.214V7.902H62.224z"/>
				<path fill="#FFFFFF" d="M67.306,8.99h0.723V4.56h-1.349v0.89h-0.706V3.894h4.918V5.45h-0.705V4.56h-1.35v4.43h0.726v0.633
					h-2.258V8.99L67.306,8.99z"/>
				<path fill="#FFFFFF" d="M70.815,8.99h0.552l1.824-5.096h0.92l1.825,5.096h0.553v0.633h-1.989V8.99h0.61l-0.447-1.277h-2.03
					L72.185,8.99h0.617v0.633h-1.986V8.99L70.815,8.99z M74.458,7.068l-0.7-1.99c-0.075-0.232-0.093-0.436-0.093-0.436H73.64
					c0,0-0.022,0.204-0.096,0.436l-0.708,1.99H74.458z"/>
				<path fill="#FFFFFF" d="M77.293,4.519h-0.724V3.894h2.261v0.625h-0.722V7.48c0,0.372,0.071,0.698,0.217,0.934
					c0.24,0.373,0.682,0.583,1.232,0.583c0.544,0,1.002-0.209,1.235-0.599c0.143-0.236,0.221-0.554,0.221-0.926V4.519h-0.726V3.894
					h2.25v0.625h-0.715v2.968c0,0.545-0.143,1.036-0.394,1.398c-0.392,0.55-1.092,0.831-1.872,0.831
					c-0.807,0-1.49-0.306-1.883-0.831c-0.264-0.367-0.381-0.843-0.381-1.398L77.293,4.519L77.293,4.519z"/>
				<path fill="#FFFFFF" d="M83.225,8.99h0.717V4.519h-0.717V3.894h2.483c0.403,0,0.735,0.015,1.054,0.12
					c0.599,0.204,0.998,0.707,0.998,1.485c0,0.83-0.451,1.42-1.183,1.607v0.02c0,0,0.144,0.079,0.243,0.266l0.812,1.41
					c0.089,0.157,0.195,0.187,0.396,0.187H88.2v0.635h-0.482c-0.491,0-0.609-0.088-0.8-0.433l-0.887-1.564
					c-0.143-0.246-0.251-0.317-0.599-0.317H84.75v1.68h0.705v0.635h-2.229V8.988h-0.002V8.99z M85.904,6.644
					c0.621,0,1.037-0.407,1.037-1.081c0-0.447-0.18-0.752-0.539-0.902c-0.184-0.072-0.427-0.101-0.707-0.101h-0.947v2.084H85.904z"
					/>
				<path fill="#FFFFFF" d="M88.584,8.99h0.553l1.824-5.096h0.919l1.829,5.096h0.547v0.633h-1.988V8.99h0.611L92.43,7.713H90.4
					L89.954,8.99h0.622v0.633h-1.99L88.584,8.99L88.584,8.99z M92.227,7.068l-0.698-1.99c-0.077-0.232-0.093-0.436-0.093-0.436
					h-0.026c0,0-0.024,0.204-0.096,0.436l-0.708,1.99H92.227z"/>
				<path fill="#FFFFFF" d="M94.779,8.99h0.713V4.519h-0.713V3.894h1.52l2.812,4.104c0.098,0.165,0.199,0.416,0.199,0.416h0.025
					c0,0-0.042-0.284-0.042-0.462V4.519h-0.726V3.894h2.261v0.625h-0.723v5.104h-0.795l-2.817-4.108
					c-0.106-0.162-0.193-0.415-0.193-0.415h-0.022c0,0,0.037,0.285,0.03,0.463V8.99h0.736v0.633H94.78L94.779,8.99L94.779,8.99z"/>
				<path fill="#FFFFFF" d="M102.721,8.99h0.718V4.56h-1.341v0.89h-0.708V3.894h4.918V5.45h-0.707V4.56h-1.35v4.43h0.724v0.633
					h-2.254V8.99L102.721,8.99z"/>
				<path fill="#FFFFFF" d="M106.974,8.99h0.717V4.519h-0.717V3.894h4.147v1.33h-0.703V4.56h-1.915v1.841h2.029v0.667h-2.029v1.89
					h2.052V8.267h0.706v1.356h-4.286L106.974,8.99L106.974,8.99z"/>
			</g>
		</g>
	</g>
</g>
</svg>
